<?xml version="1.0" encoding="utf-8"?>
<!-- Generator: Adobe Illustrator 19.2.1, SVG Export Plug-In . SVG Version: 6.00 Build 0)  -->
<svg version="1.1" id="layer" xmlns="http://www.w3.org/2000/svg" xmlns:xlink="http://www.w3.org/1999/xlink" x="0px" y="0px"
	 viewBox="0 0 652 652" style="enable-background:new 0 0 652 652;" xml:space="preserve">
<style type="text/css">
	.st0{fill:none;stroke:#0079C1;stroke-width:14.1967;}
	.st1{fill:#0079C1;}
</style>
<g>
	<polygon class="st0" points="96.3,177.8 325.8,75.8 559.3,179.9 604.2,409.9 461.4,575.8 187.6,575.6 48,408.9 	"/>
</g>
<polygon class="st1" points="189.3,398.9 146.8,300.4 146.8,398.9 128,398.9 128,276.7 158,276.7 195.8,367 233.1,276.3 
	263.5,276.3 263.5,398.7 247.2,398.7 247.2,300.4 202.3,398.9 "/>
<polygon class="st1" points="280.1,398.9 280.1,276.3 349.3,276.5 349.3,292.4 299.5,292.4 299.5,330.2 349.3,330.2 349.3,345.6 
	299.5,345.6 299.5,383 349.3,383 349.3,398.9 "/>
<polygon class="st1" points="446.4,398.5 446.4,377.7 499.1,292.2 449.3,292.2 449.3,276.5 521.1,276.5 521.1,297.4 468.2,383 
	524.2,383 524.2,398.5 "/>
<g>
	<path class="st1" d="M358.9,276.4h40.5c12.3-0.2,19,2.3,27.1,6.8c2.4,1.3,4.7,3,7.2,5c7.9,6.2,12.6,20.5,11.3,34.6
		c-2.1,23.8-24.4,30.3-32.7,31.2l32.5,44.6l-23.9,0.1l-42.2-53l0.2,8.7v44.6l-19.9-0.1 M392.7,340.6c9.2-0.6,13.8-2.7,18.2-4.4
		c4.9-1.8,15.7-7.8,14.8-22.3c-0.1-2.3-0.4-9.3-8.2-14.7c-4.6-3.1-10.8-5.2-24.5-5.4c-3.6-0.1-13.9,1.2-13.9,1.2v45.5l5.1,0.4
		L392.7,340.6"/>
</g>
</svg>
